<svg width="167" height="102" viewBox="0 0 167 102" fill="none" xmlns="http://www.w3.org/2000/svg">
<path d="M167 81C167 71 160.5 59 143 58C130.5 58 117.027 65.8746 117.5 81C119 95 131 102 143 102C160.5 101 167 87.8 167 81Z" fill="white"/>
<path fill-rule="evenodd" clip-rule="evenodd" d="M0 52.0011C0 22 21 0 57.4999 0C93.9999 0 114 22.5 114 52.0011C114 78.5 91.5 102 57.4999 102C26.5 102 1 85.5 0 52.0011ZM58.5001 26.5001C78.5001 27.0001 84.0001 38 84.0001 51.5C84.0001 68 73 75 58.5001 75.5C48.0001 75.5 31.425 72.5 30.0001 53.5C28.5001 33.5 39.5001 26.025 58.5001 26.5001Z" fill="white"/>
<mask id="mask0_13_937" style="mask-type:alpha" maskUnits="userSpaceOnUse" x="-1" y="-1" width="116" height="104">
<path d="M57.4999 0C21 0 0 22 0 52.0011C1 85.5 26.5 102 57.4999 102C91.5 102 114 78.5 114 52.0011C114 22.5 93.9999 0 57.4999 0Z" fill="white" stroke="#FF0000" stroke-opacity="0.45"/>
</mask>
<g mask="url(#mask0_13_937)">
</g>
</svg>
